<?xml version="1.0" standalone="no"?>
<!DOCTYPE svg PUBLIC "-//W3C//DTD SVG 20010904//EN"
 "http://www.w3.org/TR/2001/REC-SVG-20010904/DTD/svg10.dtd">
<svg version="1.0" xmlns="http://www.w3.org/2000/svg"
 width="800.000000pt" height="1280.000000pt" viewBox="0 0 800.000000 1280.000000"
 preserveAspectRatio="xMidYMid meet">
<metadata>
Created by potrace 1.15, written by Peter Selinger 2001-2017
</metadata>
<g transform="translate(0.000000,1280.000000) scale(0.100000,-0.100000)"
fill="#000000" stroke="none">
<path d="M3315 12544 c-33 -2 -152 -8 -265 -14 -408 -22 -856 -65 -1300 -126
-229 -31 -712 -107 -766 -120 -19 -5 -22 -15 -28 -92 -4 -54 -11 -91 -20 -97
-27 -21 -45 -75 -60 -180 -8 -60 -13 -112 -10 -116 2 -4 0 -10 -5 -13 -5 -3
-12 -29 -16 -56 -4 -28 -11 -50 -15 -50 -5 0 -19 -33 -31 -72 -12 -40 -29 -91
-38 -112 -8 -22 -16 -44 -16 -50 -1 -6 -5 -20 -9 -31 -5 -11 -15 -39 -25 -63
-9 -24 -94 -144 -188 -268 -95 -123 -177 -233 -183 -244 -5 -10 -10 -40 -10
-67 0 -30 -4 -43 -9 -35 -5 9 -16 -7 -32 -50 -22 -58 -24 -77 -24 -243 0 -173
1 -182 25 -229 44 -85 61 -90 361 -97 415 -9 395 17 439 -589 11 -151 29 -398
40 -547 11 -150 29 -394 40 -543 11 -148 29 -391 40 -540 38 -511 60 -806 80
-1080 40 -535 62 -829 235 -3170 96 -1301 180 -2396 186 -2435 34 -212 165
-393 351 -485 165 -81 19 -75 1963 -75 l1730 0 78 22 c111 32 196 77 266 139
66 60 130 142 136 174 2 12 15 34 29 51 40 47 106 189 111 239 11 97 17 187
55 780 22 338 44 680 50 760 6 80 28 422 50 760 22 338 49 748 60 910 11 162
38 572 60 910 22 338 44 680 50 760 6 80 28 422 50 760 22 338 51 782 65 985
13 204 40 615 60 915 19 300 40 601 46 670 11 134 38 541 39 576 0 38 60 47
380 54 176 4 305 11 321 17 37 16 92 82 86 104 -4 15 0 19 23 19 19 0 36 9 49
26 20 25 21 39 21 284 0 231 -2 260 -17 278 -10 10 -115 97 -233 193 -118 95
-217 176 -220 179 -3 3 -24 20 -46 38 -35 27 -44 41 -58 96 -20 81 -20 86 1
86 14 0 12 5 -9 28 -34 36 -58 139 -58 249 0 83 -1 88 -30 118 -24 25 -41 69
-91 235 -34 113 -63 206 -64 208 -4 5 -352 58 -590 91 -541 75 -985 120 -1545
157 -217 15 -1387 28 -1565 18z"/>
</g>
</svg>
